<svg width="23" height="21" viewBox="0 0 23 21" fill="none" xmlns="http://www.w3.org/2000/svg">
<path id="Vector" d="M20.15 1.5125C19.9 0.775 19.2 0.25 18.375 0.25H4.625C3.8 0.25 3.1125 0.775 2.85 1.5125L0.25 9V19C0.25 19.6875 0.8125 20.25 1.5 20.25H2.75C3.4375 20.25 4 19.6875 4 19V17.75H19V19C19 19.6875 19.5625 20.25 20.25 20.25H21.5C22.1875 20.25 22.75 19.6875 22.75 19V9L20.15 1.5125ZM4.625 14C3.5875 14 2.75 13.1625 2.75 12.125C2.75 11.0875 3.5875 10.25 4.625 10.25C5.6625 10.25 6.5 11.0875 6.5 12.125C6.5 13.1625 5.6625 14 4.625 14ZM18.375 14C17.3375 14 16.5 13.1625 16.5 12.125C16.5 11.0875 17.3375 10.25 18.375 10.25C19.4125 10.25 20.25 11.0875 20.25 12.125C20.25 13.1625 19.4125 14 18.375 14ZM2.75 7.75L4.625 2.125H18.375L20.25 7.75H2.75Z" fill="white"/>
</svg>
