<svg width="187" height="72" viewBox="0 0 187 72" fill="none" xmlns="http://www.w3.org/2000/svg">
<path d="M18.32 39.52C18.4587 40.0747 18.528 40.768 18.528 41.6C18.528 42.3973 18.4587 43.0907 18.32 43.68C18.4587 44.2347 18.528 44.928 18.528 45.76C18.528 46.5573 18.4587 47.2507 18.32 47.84H26.64C26.7787 48.3947 26.848 49.088 26.848 49.92C26.848 50.7173 26.7787 51.4107 26.64 52H14.16C14.0213 51.4107 13.952 50.7173 13.952 49.92C13.952 49.088 14.0213 48.3947 14.16 47.84C14.0213 47.2507 13.952 46.5573 13.952 45.76C13.952 44.928 14.0213 44.2347 14.16 43.68C14.0213 43.0907 13.952 42.3973 13.952 41.6C13.952 40.768 14.0213 40.0747 14.16 39.52C14.0213 38.9307 13.952 38.2373 13.952 37.44C13.952 36.608 14.0213 35.9147 14.16 35.36C14.0213 34.7707 13.952 34.0773 13.952 33.28C13.952 32.448 14.0213 31.7547 14.16 31.2C14.0213 30.6107 13.952 29.9173 13.952 29.12C13.952 28.288 14.0213 27.5947 14.16 27.04C14.0213 26.4507 13.952 25.7573 13.952 24.96C13.952 24.128 14.0213 23.4347 14.16 22.88H26.64C26.7787 23.4347 26.848 24.128 26.848 24.96C26.848 25.7573 26.7787 26.4507 26.64 27.04H18.32C18.4587 27.5947 18.528 28.288 18.528 29.12C18.528 29.9173 18.4587 30.6107 18.32 31.2C18.4587 31.7547 18.528 32.448 18.528 33.28C18.528 34.0773 18.4587 34.7707 18.32 35.36H26.64C26.7787 35.9147 26.848 36.608 26.848 37.44C26.848 38.2373 26.7787 38.9307 26.64 39.52H18.32ZM49.5403 47.84C49.679 48.3947 49.7483 49.088 49.7483 49.92C49.7483 50.7173 49.679 51.4107 49.5403 52H45.3803C45.2416 51.4107 45.1723 50.7173 45.1723 49.92C45.1723 49.088 45.2416 48.3947 45.3803 47.84H43.3003C43.1616 47.2507 43.0923 46.5573 43.0923 45.76C43.0923 44.928 43.1616 44.2347 43.3003 43.68H37.0603C37.199 44.2347 37.2683 44.928 37.2683 45.76C37.2683 46.5573 37.199 47.2507 37.0603 47.84H43.3003C43.439 48.3947 43.5083 49.088 43.5083 49.92C43.5083 50.7173 43.439 51.4107 43.3003 52H34.9803C34.8416 51.4107 34.7723 50.7173 34.7723 49.92C34.7723 49.088 34.8416 48.3947 34.9803 47.84H32.9003C32.7616 47.2507 32.6923 46.5573 32.6923 45.76C32.6923 44.928 32.7616 44.2347 32.9003 43.68H34.9803C34.8416 43.0907 34.7723 42.3973 34.7723 41.6C34.7723 40.768 34.8416 40.0747 34.9803 39.52H43.3003C43.1616 38.9307 43.0923 38.2373 43.0923 37.44C43.0923 36.608 43.1616 35.9147 43.3003 35.36H36.0203C35.8816 34.7707 35.8123 34.0773 35.8123 33.28C35.8123 32.448 35.8816 31.7547 36.0203 31.2H45.3803C45.519 31.7547 45.5883 32.448 45.5883 33.28C45.5883 34.0773 45.519 34.7707 45.3803 35.36H47.4603C47.599 35.9147 47.6683 36.608 47.6683 37.44C47.6683 38.2373 47.599 38.9307 47.4603 39.52C47.599 40.0747 47.6683 40.768 47.6683 41.6C47.6683 42.3973 47.599 43.0907 47.4603 43.68C47.599 44.2347 47.6683 44.928 47.6683 45.76C47.6683 46.5573 47.599 47.2507 47.4603 47.84H49.5403ZM69.5286 45.76C69.5286 46.5573 69.4593 47.2507 69.3206 47.84H67.2406C67.3793 48.3947 67.4486 49.088 67.4486 49.92C67.4486 50.7173 67.3793 51.4107 67.2406 52H55.8006C55.662 51.4107 55.5926 50.7173 55.5926 49.92C55.5926 49.088 55.662 48.3947 55.8006 47.84H65.1606C65.022 47.2507 64.9526 46.5573 64.9526 45.76C64.9526 44.928 65.022 44.2347 65.1606 43.68H56.8406C56.702 43.0907 56.6326 42.3973 56.6326 41.6C56.6326 40.768 56.702 40.0747 56.8406 39.52H54.7606C54.622 38.9307 54.5526 38.2373 54.5526 37.44C54.5526 36.608 54.622 35.9147 54.7606 35.36H56.8406C56.702 34.7707 56.6326 34.0773 56.6326 33.28C56.6326 32.448 56.702 31.7547 56.8406 31.2H68.2806C68.4193 31.7547 68.4886 32.448 68.4886 33.28C68.4886 34.0773 68.4193 34.7707 68.2806 35.36H58.9206C59.0593 35.9147 59.1286 36.608 59.1286 37.44C59.1286 38.2373 59.0593 38.9307 58.9206 39.52H67.2406C67.3793 40.0747 67.4486 40.768 67.4486 41.6C67.4486 42.3973 67.3793 43.0907 67.2406 43.68H69.3206C69.4593 44.2347 69.5286 44.928 69.5286 45.76ZM91.3889 37.44C91.3889 38.2373 91.3196 38.9307 91.1809 39.52C91.3196 40.0747 91.3889 40.768 91.3889 41.6C91.3889 42.3973 91.3196 43.0907 91.1809 43.68H80.2609C80.3996 44.2347 80.4689 44.928 80.4689 45.76C80.4689 46.5573 80.3996 47.2507 80.2609 47.84H89.1009C89.2396 48.3947 89.3089 49.088 89.3089 49.92C89.3089 50.7173 89.2396 51.4107 89.1009 52H78.7009C78.5623 51.4107 78.4929 50.7173 78.4929 49.92C78.4929 49.088 78.5623 48.3947 78.7009 47.84H76.1009C75.9623 47.2507 75.8929 46.5573 75.8929 45.76C75.8929 44.928 75.9623 44.2347 76.1009 43.68H74.5409C74.4023 43.0907 74.3329 42.3973 74.3329 41.6C74.3329 40.768 74.4023 40.0747 74.5409 39.52H76.1009C75.9623 38.9307 75.8929 38.2373 75.8929 37.44C75.8929 36.608 75.9623 35.9147 76.1009 35.36H78.7009C78.5623 34.7707 78.4929 34.0773 78.4929 33.28C78.4929 32.448 78.5623 31.7547 78.7009 31.2H89.1009C89.2396 31.7547 89.3089 32.448 89.3089 33.28C89.3089 34.0773 89.2396 34.7707 89.1009 35.36H91.1809C91.3196 35.9147 91.3889 36.608 91.3889 37.44ZM87.0209 39.52C86.8823 38.9307 86.8129 38.2373 86.8129 37.44C86.8129 36.608 86.8823 35.9147 87.0209 35.36H80.2609C80.3996 35.9147 80.4689 36.608 80.4689 37.44C80.4689 38.2373 80.3996 38.9307 80.2609 39.52H87.0209Z" fill="white"/>
<path d="M112.209 29.12C112.209 29.9173 112.14 30.6107 112.001 31.2C112.14 31.7547 112.209 32.448 112.209 33.28C112.209 34.0773 112.14 34.7707 112.001 35.36H109.921C110.06 35.9147 110.129 36.608 110.129 37.44C110.129 38.2373 110.06 38.9307 109.921 39.52H99.5213C99.6599 40.0747 99.7293 40.768 99.7293 41.6C99.7293 42.3973 99.6599 43.0907 99.5213 43.68C99.6599 44.2347 99.7293 44.928 99.7293 45.76C99.7293 46.5573 99.6599 47.2507 99.5213 47.84C99.6599 48.3947 99.7293 49.088 99.7293 49.92C99.7293 50.7173 99.6599 51.4107 99.5213 52H95.3613C95.2226 51.4107 95.1533 50.7173 95.1533 49.92C95.1533 49.088 95.2226 48.3947 95.3613 47.84C95.2226 47.2507 95.1533 46.5573 95.1533 45.76C95.1533 44.928 95.2226 44.2347 95.3613 43.68C95.2226 43.0907 95.1533 42.3973 95.1533 41.6C95.1533 40.768 95.2226 40.0747 95.3613 39.52C95.2226 38.9307 95.1533 38.2373 95.1533 37.44C95.1533 36.608 95.2226 35.9147 95.3613 35.36C95.2226 34.7707 95.1533 34.0773 95.1533 33.28C95.1533 32.448 95.2226 31.7547 95.3613 31.2C95.2226 30.6107 95.1533 29.9173 95.1533 29.12C95.1533 28.288 95.2226 27.5947 95.3613 27.04C95.2226 26.4507 95.1533 25.7573 95.1533 24.96C95.1533 24.128 95.2226 23.4347 95.3613 22.88H109.921C110.06 23.4347 110.129 24.128 110.129 24.96C110.129 25.7573 110.06 26.4507 109.921 27.04H112.001C112.14 27.5947 112.209 28.288 112.209 29.12ZM107.841 35.36C107.703 34.7707 107.633 34.0773 107.633 33.28C107.633 32.448 107.703 31.7547 107.841 31.2C107.703 30.6107 107.633 29.9173 107.633 29.12C107.633 28.288 107.703 27.5947 107.841 27.04H99.5213C99.6599 27.5947 99.7293 28.288 99.7293 29.12C99.7293 29.9173 99.6599 30.6107 99.5213 31.2C99.6599 31.7547 99.7293 32.448 99.7293 33.28C99.7293 34.0773 99.6599 34.7707 99.5213 35.36H107.841ZM132.822 47.84C132.96 48.3947 133.03 49.088 133.03 49.92C133.03 50.7173 132.96 51.4107 132.822 52H128.662C128.523 51.4107 128.454 50.7173 128.454 49.92C128.454 49.088 128.523 48.3947 128.662 47.84H126.582C126.443 47.2507 126.374 46.5573 126.374 45.76C126.374 44.928 126.443 44.2347 126.582 43.68H120.342C120.48 44.2347 120.55 44.928 120.55 45.76C120.55 46.5573 120.48 47.2507 120.342 47.84H126.582C126.72 48.3947 126.79 49.088 126.79 49.92C126.79 50.7173 126.72 51.4107 126.582 52H118.262C118.123 51.4107 118.054 50.7173 118.054 49.92C118.054 49.088 118.123 48.3947 118.262 47.84H116.182C116.043 47.2507 115.974 46.5573 115.974 45.76C115.974 44.928 116.043 44.2347 116.182 43.68H118.262C118.123 43.0907 118.054 42.3973 118.054 41.6C118.054 40.768 118.123 40.0747 118.262 39.52H126.582C126.443 38.9307 126.374 38.2373 126.374 37.44C126.374 36.608 126.443 35.9147 126.582 35.36H119.302C119.163 34.7707 119.094 34.0773 119.094 33.28C119.094 32.448 119.163 31.7547 119.302 31.2H128.662C128.8 31.7547 128.87 32.448 128.87 33.28C128.87 34.0773 128.8 34.7707 128.662 35.36H130.742C130.88 35.9147 130.95 36.608 130.95 37.44C130.95 38.2373 130.88 38.9307 130.742 39.52C130.88 40.0747 130.95 40.768 130.95 41.6C130.95 42.3973 130.88 43.0907 130.742 43.68C130.88 44.2347 130.95 44.928 130.95 45.76C130.95 46.5573 130.88 47.2507 130.742 47.84H132.822ZM153.642 35.36C153.781 35.9147 153.85 36.608 153.85 37.44C153.85 38.2373 153.781 38.9307 153.642 39.52H149.482C149.343 38.9307 149.274 38.2373 149.274 37.44C149.274 36.608 149.343 35.9147 149.482 35.36H145.842C145.981 35.9147 146.05 36.608 146.05 37.44C146.05 38.2373 145.981 38.9307 145.842 39.52H144.282C144.421 40.0747 144.49 40.768 144.49 41.6C144.49 42.3973 144.421 43.0907 144.282 43.68C144.421 44.2347 144.49 44.928 144.49 45.76C144.49 46.5573 144.421 47.2507 144.282 47.84H147.402C147.541 48.3947 147.61 49.088 147.61 49.92C147.61 50.7173 147.541 51.4107 147.402 52H137.002C136.863 51.4107 136.794 50.7173 136.794 49.92C136.794 49.088 136.863 48.3947 137.002 47.84H140.122C139.983 47.2507 139.914 46.5573 139.914 45.76C139.914 44.928 139.983 44.2347 140.122 43.68C139.983 43.0907 139.914 42.3973 139.914 41.6C139.914 40.768 139.983 40.0747 140.122 39.52C139.983 38.9307 139.914 38.2373 139.914 37.44C139.914 36.608 139.983 35.9147 140.122 35.36H137.002C136.863 34.7707 136.794 34.0773 136.794 33.28C136.794 32.448 136.863 31.7547 137.002 31.2H142.202C142.341 31.7547 142.41 32.448 142.41 33.28C142.41 34.0773 142.341 34.7707 142.202 35.36H144.282C144.143 34.7707 144.074 34.0773 144.074 33.28C144.074 32.448 144.143 31.7547 144.282 31.2H152.082C152.221 31.7547 152.29 32.448 152.29 33.28C152.29 34.0773 152.221 34.7707 152.082 35.36H153.642ZM174.462 47.84C174.601 48.3947 174.67 49.088 174.67 49.92C174.67 50.7173 174.601 51.4107 174.462 52H167.182C167.044 51.4107 166.974 50.7173 166.974 49.92C166.974 49.088 167.044 48.3947 167.182 47.84H165.102C164.964 47.2507 164.894 46.5573 164.894 45.76C164.894 44.928 164.964 44.2347 165.102 43.68H161.982C162.121 44.2347 162.19 44.928 162.19 45.76C162.19 46.5573 162.121 47.2507 161.982 47.84C162.121 48.3947 162.19 49.088 162.19 49.92C162.19 50.7173 162.121 51.4107 161.982 52H157.822C157.684 51.4107 157.614 50.7173 157.614 49.92C157.614 49.088 157.684 48.3947 157.822 47.84C157.684 47.2507 157.614 46.5573 157.614 45.76C157.614 44.928 157.684 44.2347 157.822 43.68C157.684 43.0907 157.614 42.3973 157.614 41.6C157.614 40.768 157.684 40.0747 157.822 39.52C157.684 38.9307 157.614 38.2373 157.614 37.44C157.614 36.608 157.684 35.9147 157.822 35.36C157.684 34.7707 157.614 34.0773 157.614 33.28C157.614 32.448 157.684 31.7547 157.822 31.2C157.684 30.6107 157.614 29.9173 157.614 29.12C157.614 28.288 157.684 27.5947 157.822 27.04C157.684 26.4507 157.614 25.7573 157.614 24.96C157.614 24.128 157.684 23.4347 157.822 22.88H161.982C162.121 23.4347 162.19 24.128 162.19 24.96C162.19 25.7573 162.121 26.4507 161.982 27.04C162.121 27.5947 162.19 28.288 162.19 29.12C162.19 29.9173 162.121 30.6107 161.982 31.2C162.121 31.7547 162.19 32.448 162.19 33.28C162.19 34.0773 162.121 34.7707 161.982 35.36C162.121 35.9147 162.19 36.608 162.19 37.44C162.19 38.2373 162.121 38.9307 161.982 39.52H165.102C164.964 38.9307 164.894 38.2373 164.894 37.44C164.894 36.608 164.964 35.9147 165.102 35.36H167.182C167.044 34.7707 166.974 34.0773 166.974 33.28C166.974 32.448 167.044 31.7547 167.182 31.2H173.422C173.561 31.7547 173.63 32.448 173.63 33.28C173.63 34.0773 173.561 34.7707 173.422 35.36H169.262C169.401 35.9147 169.47 36.608 169.47 37.44C169.47 38.2373 169.401 38.9307 169.262 39.52H167.182C167.321 40.0747 167.39 40.768 167.39 41.6C167.39 42.3973 167.321 43.0907 167.182 43.68H169.262C169.401 44.2347 169.47 44.928 169.47 45.76C169.47 46.5573 169.401 47.2507 169.262 47.84H174.462Z" fill="#5EE65A"/>
</svg>
