<svg width="20" height="20" viewBox="0 0 20 20" fill="none" xmlns="http://www.w3.org/2000/svg">
<path id="Vector" d="M0 7.23077C0 8.33534 0.895431 9.23077 2 9.23077H7.09091C8.19548 9.23077 9.09091 8.33534 9.09091 7.23077V2C9.09091 0.89543 8.19548 0 7.09091 0H2C0.89543 0 0 0.89543 0 2V7.23077ZM0 18C0 19.1046 0.895431 20 2 20H7.09091C8.19548 20 9.09091 19.1046 9.09091 18V12.7692C9.09091 11.6647 8.19548 10.7692 7.09091 10.7692H2C0.89543 10.7692 0 11.6647 0 12.7692V18ZM10.9091 18C10.9091 19.1046 11.8045 20 12.9091 20H18C19.1046 20 20 19.1046 20 18V12.7692C20 11.6647 19.1046 10.7692 18 10.7692H12.9091C11.8045 10.7692 10.9091 11.6647 10.9091 12.7692V18ZM10.9091 7.23077C10.9091 8.33534 11.8045 9.23077 12.9091 9.23077H18C19.1046 9.23077 20 8.33534 20 7.23077V2C20 0.89543 19.1046 0 18 0H12.9091C11.8045 0 10.9091 0.89543 10.9091 2V7.23077Z" fill="white"/>
</svg>
